<svg width="20" height="20" viewBox="0 0 20 20" fill="none" xmlns="http://www.w3.org/2000/svg">
<path d="M16.8689 2.89057C13.014 -0.963522 6.74483 -0.963522 2.88993 2.89057C-0.963309 6.74465 -0.963309 13.0154 2.88993 16.8695C4.81738 18.7961 7.34858 19.759 9.87983 19.759C12.4111 19.759 14.9414 18.7961 16.8689 16.8695C20.723 13.0155 20.723 6.74465 16.8689 2.89057ZM13.9563 12.7922C14.2783 13.1143 14.2783 13.6349 13.9563 13.9569C13.7957 14.1175 13.5848 14.1983 13.3739 14.1983C13.1631 14.1983 12.9522 14.1175 12.7915 13.9569L9.87979 11.0443L6.96885 13.9561C6.80741 14.1167 6.59652 14.1974 6.38648 14.1974C6.17563 14.1974 5.96474 14.1167 5.80411 13.9561C5.48206 13.634 5.48206 13.1126 5.80411 12.7914L8.71506 9.87961L5.8033 6.96786C5.48125 6.64581 5.48125 6.12441 5.8033 5.80317C6.12454 5.48112 6.64594 5.48112 6.968 5.80317L9.87975 8.71492L12.7915 5.80317C13.1136 5.48112 13.6341 5.48112 13.9562 5.80317C14.2782 6.12441 14.2782 6.64581 13.9562 6.96786L11.0444 9.87961L13.9563 12.7922Z" fill="#B21107"/>
</svg>
