<svg width="20" height="20" viewBox="0 0 20 20" fill="none" xmlns="http://www.w3.org/2000/svg">
<path d="M14.1078 8.08992C14.4585 7.73917 14.4585 7.17047 14.1078 6.81972C13.757 6.46895 13.1883 6.46895 12.8376 6.81972L8.63462 11.0227L6.9342 9.25693C6.59012 8.89964 6.02152 8.88886 5.66421 9.23295C5.30689 9.57704 5.29616 10.1456 5.64024 10.503L7.97551 12.9281C8.14277 13.1018 8.37289 13.2009 8.61405 13.2032C8.85512 13.2054 9.08712 13.1107 9.2576 12.9401L14.1078 8.08992Z" fill="white"/>
<path fill-rule="evenodd" clip-rule="evenodd" d="M9.88 0C4.42343 0 0 4.42343 0 9.88C0 15.3365 4.42343 19.76 9.88 19.76C15.3365 19.76 19.76 15.3365 19.76 9.88C19.76 4.42343 15.3365 0 9.88 0ZM1.79636 9.88C1.79636 5.41553 5.41553 1.79636 9.88 1.79636C14.3445 1.79636 17.9636 5.41553 17.9636 9.88C17.9636 14.3445 14.3445 17.9636 9.88 17.9636C5.41553 17.9636 1.79636 14.3445 1.79636 9.88Z" fill="white"/>
</svg>
