<svg width="25" height="25" viewBox="0 0 25 25" fill="none" xmlns="http://www.w3.org/2000/svg">
<path d="M12.5 0C5.60739 0 0 5.60739 0 12.5C0 19.3927 5.60739 25 12.5 25C19.3927 25 25 19.3926 25 12.5C25 5.60739 19.3927 0 12.5 0ZM12.5 22.2678C7.11391 22.2678 2.73224 17.8861 2.73224 12.5C2.73224 7.11418 7.11391 2.73224 12.5 2.73224C17.8861 2.73224 22.2678 7.11418 22.2678 12.5C22.2678 17.8861 17.8861 22.2678 12.5 22.2678Z" fill="#F1F1F1"/>
<path d="M13.582 12.515V7.27596C13.582 6.69098 13.108 6.21695 12.5232 6.21695C11.9383 6.21695 11.4642 6.69098 11.4642 7.27596V12.8533C11.4642 12.87 11.4683 12.8856 11.4691 12.9022C11.4552 13.1902 11.5544 13.4826 11.7743 13.7025L15.7184 17.6462C16.132 18.0599 16.8025 18.0599 17.2159 17.6462C17.6293 17.2326 17.6295 16.5621 17.2159 16.1487L13.582 12.515Z" fill="#F1F1F1"/>
</svg>
