<svg width="92" height="11" viewBox="0 0 92 11" fill="none" xmlns="http://www.w3.org/2000/svg">
<path d="M10.124 3.25293C9.94629 3.16634 9.71159 3.06836 9.41992 2.95898C9.12826 2.84961 8.79785 2.74707 8.42871 2.65137C8.05957 2.55111 7.65853 2.46908 7.22559 2.40527C6.79264 2.33691 6.34831 2.30273 5.89258 2.30273C5.52799 2.30273 5.21582 2.31413 4.95605 2.33691C4.70085 2.3597 4.48438 2.38932 4.30664 2.42578C4.13346 2.46224 3.99447 2.50553 3.88965 2.55566C3.78939 2.60124 3.71191 2.64909 3.65723 2.69922C3.60254 2.74935 3.56608 2.79948 3.54785 2.84961C3.53418 2.89974 3.52734 2.94531 3.52734 2.98633C3.52734 3.12305 3.5957 3.24382 3.73242 3.34863C3.86914 3.44889 4.05599 3.54004 4.29297 3.62207C4.52995 3.69954 4.80566 3.77474 5.12012 3.84766C5.43457 3.91602 5.76725 3.98893 6.11816 4.06641C6.47363 4.13932 6.83822 4.22135 7.21191 4.3125C7.59017 4.39909 7.95475 4.50163 8.30566 4.62012C8.66113 4.73861 8.99609 4.8776 9.31055 5.03711C9.625 5.19206 9.90072 5.37435 10.1377 5.58398C10.3747 5.79362 10.5615 6.03516 10.6982 6.30859C10.835 6.58203 10.9033 6.89421 10.9033 7.24512C10.9033 7.69629 10.8236 8.08366 10.6641 8.40723C10.5046 8.73079 10.2904 9.00423 10.0215 9.22754C9.75716 9.45085 9.44954 9.63086 9.09863 9.76758C8.74772 9.89974 8.37858 10.0023 7.99121 10.0752C7.6084 10.1481 7.21875 10.196 6.82227 10.2188C6.43034 10.2415 6.05664 10.2529 5.70117 10.2529C4.77148 10.2529 3.91016 10.1755 3.11719 10.0205C2.32878 9.87012 1.63151 9.68099 1.02539 9.45312V7.21094C1.64974 7.55729 2.36068 7.82845 3.1582 8.02441C3.96029 8.22038 4.81706 8.31836 5.72852 8.31836C6.26628 8.31836 6.70378 8.29102 7.04102 8.23633C7.38281 8.17708 7.64941 8.10417 7.84082 8.01758C8.03223 7.92643 8.16211 7.82845 8.23047 7.72363C8.29883 7.61882 8.33301 7.51855 8.33301 7.42285C8.33301 7.27246 8.26465 7.14258 8.12793 7.0332C7.99121 6.91927 7.80436 6.82129 7.56738 6.73926C7.3304 6.65267 7.05469 6.5752 6.74023 6.50684C6.42578 6.43392 6.09082 6.36328 5.73535 6.29492C5.38444 6.22201 5.02214 6.14453 4.64844 6.0625C4.27474 5.98047 3.91016 5.88477 3.55469 5.77539C3.20378 5.66146 2.87109 5.53158 2.55664 5.38574C2.24219 5.23535 1.96647 5.0599 1.72949 4.85938C1.49251 4.6543 1.30566 4.4196 1.16895 4.15527C1.03223 3.88639 0.963867 3.5765 0.963867 3.22559C0.963867 2.81087 1.03678 2.45312 1.18262 2.15234C1.32845 1.85156 1.52441 1.59635 1.77051 1.38672C2.02116 1.17253 2.30827 0.999349 2.63184 0.867188C2.95996 0.735026 3.30404 0.632487 3.66406 0.55957C4.02409 0.486654 4.38867 0.436523 4.75781 0.40918C5.12695 0.381836 5.47786 0.368164 5.81055 0.368164C6.17513 0.368164 6.54883 0.386393 6.93164 0.422852C7.31901 0.45931 7.69954 0.511719 8.07324 0.580078C8.44694 0.64388 8.80697 0.719076 9.15332 0.805664C9.50423 0.892253 9.8278 0.983398 10.124 1.0791V3.25293ZM23.8643 3.81348C23.8643 4.28288 23.7959 4.71582 23.6592 5.1123C23.5225 5.50423 23.3014 5.84375 22.9961 6.13086C22.6953 6.41341 22.3034 6.63444 21.8203 6.79395C21.3372 6.95345 20.7493 7.0332 20.0566 7.0332H15.8457V10H13.3096V0.607422H20.0566C20.7493 0.607422 21.3372 0.687174 21.8203 0.84668C22.3034 1.00163 22.6953 1.22266 22.9961 1.50977C23.3014 1.79232 23.5225 2.12956 23.6592 2.52148C23.7959 2.91341 23.8643 3.34408 23.8643 3.81348ZM21.3008 3.85449C21.3008 3.63574 21.2689 3.44889 21.2051 3.29395C21.1458 3.13444 21.0456 3.00456 20.9043 2.9043C20.763 2.80404 20.5785 2.73112 20.3506 2.68555C20.1227 2.63542 19.8424 2.61035 19.5098 2.61035H15.8457V5.03027H19.5098C19.8424 5.03027 20.1227 5.01204 20.3506 4.97559C20.5785 4.93457 20.763 4.86849 20.9043 4.77734C21.0456 4.68164 21.1458 4.55859 21.2051 4.4082C21.2689 4.25781 21.3008 4.07324 21.3008 3.85449ZM38.124 5.31055C38.124 6.11719 37.9759 6.8304 37.6797 7.4502C37.3835 8.06543 36.9596 8.5804 36.4082 8.99512C35.8568 9.40983 35.1868 9.72428 34.3984 9.93848C33.6146 10.1481 32.7327 10.2529 31.7529 10.2529C30.7731 10.2529 29.8867 10.1481 29.0938 9.93848C28.3053 9.72428 27.6331 9.40983 27.0771 8.99512C26.5212 8.5804 26.0928 8.06543 25.792 7.4502C25.4912 6.8304 25.3408 6.11719 25.3408 5.31055C25.3408 4.50391 25.4912 3.79297 25.792 3.17773C26.0928 2.55794 26.5212 2.04069 27.0771 1.62598C27.6331 1.21126 28.3053 0.899089 29.0938 0.689453C29.8867 0.47526 30.7731 0.368164 31.7529 0.368164C32.7327 0.368164 33.6146 0.47526 34.3984 0.689453C35.1868 0.899089 35.8568 1.21126 36.4082 1.62598C36.9596 2.04069 37.3835 2.55794 37.6797 3.17773C37.9759 3.79297 38.124 4.50391 38.124 5.31055ZM35.5605 5.31055C35.5605 4.95964 35.5036 4.611 35.3896 4.26465C35.2803 3.91374 35.082 3.59928 34.7949 3.32129C34.5124 3.04329 34.125 2.81771 33.6328 2.64453C33.1406 2.47135 32.514 2.38477 31.7529 2.38477C31.2425 2.38477 30.7936 2.42578 30.4062 2.50781C30.0189 2.58529 29.6839 2.69466 29.4014 2.83594C29.1188 2.97721 28.8818 3.14355 28.6904 3.33496C28.499 3.52181 28.3464 3.72461 28.2324 3.94336C28.1185 4.15755 28.0365 4.38314 27.9863 4.62012C27.9408 4.85254 27.918 5.08268 27.918 5.31055C27.918 5.54297 27.9408 5.77767 27.9863 6.01465C28.0365 6.25163 28.1185 6.47949 28.2324 6.69824C28.3464 6.91243 28.499 7.11296 28.6904 7.2998C28.8818 7.48665 29.1188 7.65072 29.4014 7.79199C29.6839 7.92871 30.0189 8.03809 30.4062 8.12012C30.7936 8.19759 31.2425 8.23633 31.7529 8.23633C32.514 8.23633 33.1406 8.14974 33.6328 7.97656C34.125 7.80339 34.5124 7.5778 34.7949 7.2998C35.082 7.02181 35.2803 6.70964 35.3896 6.36328C35.5036 6.01237 35.5605 5.66146 35.5605 5.31055ZM42.9707 10H40.4346V0.607422H46.792C47.4756 0.607422 48.0544 0.67806 48.5283 0.819336C49.0068 0.960612 49.3942 1.16113 49.6904 1.4209C49.9912 1.68066 50.2077 1.99512 50.3398 2.36426C50.4766 2.72884 50.5449 3.13672 50.5449 3.58789C50.5449 3.98438 50.488 4.33073 50.374 4.62695C50.2646 4.92318 50.1143 5.17839 49.9229 5.39258C49.736 5.60221 49.5173 5.77995 49.2666 5.92578C49.016 6.07161 48.7516 6.19238 48.4736 6.28809L51.5498 10H48.583L45.7393 6.54102H42.9707V10ZM47.9814 3.57422C47.9814 3.39193 47.9564 3.23698 47.9062 3.10938C47.8607 2.98177 47.7786 2.87923 47.6602 2.80176C47.5417 2.71973 47.3822 2.66048 47.1816 2.62402C46.9857 2.58757 46.7396 2.56934 46.4434 2.56934H42.9707V4.5791H46.4434C46.7396 4.5791 46.9857 4.56087 47.1816 4.52441C47.3822 4.48796 47.5417 4.43099 47.6602 4.35352C47.7786 4.27148 47.8607 4.16667 47.9062 4.03906C47.9564 3.91146 47.9814 3.75651 47.9814 3.57422ZM58.6318 2.65137V10H56.0957V2.65137H52.1104V0.607422H62.624V2.65137H58.6318ZM64.415 10V0.607422H65.2695V10H64.415ZM78.0664 9.25488C77.7383 9.3916 77.4124 9.51693 77.0889 9.63086C76.7699 9.74479 76.4372 9.84277 76.0908 9.9248C75.7445 10.0068 75.3799 10.0706 74.9971 10.1162C74.6143 10.1618 74.1973 10.1846 73.7461 10.1846C73.1901 10.1846 72.6546 10.139 72.1396 10.0479C71.6292 9.95671 71.153 9.81999 70.7109 9.6377C70.2689 9.4554 69.8678 9.22982 69.5078 8.96094C69.1478 8.6875 68.8379 8.37077 68.5781 8.01074C68.3229 7.65072 68.1247 7.24512 67.9834 6.79395C67.8467 6.34277 67.7783 5.84831 67.7783 5.31055C67.7783 4.77279 67.8467 4.27832 67.9834 3.82715C68.1247 3.37598 68.3229 2.97038 68.5781 2.61035C68.8379 2.25033 69.1478 1.93587 69.5078 1.66699C69.8678 1.39355 70.2689 1.16569 70.7109 0.983398C71.153 0.801107 71.6292 0.664388 72.1396 0.573242C72.6501 0.482096 73.1855 0.436523 73.7461 0.436523C74.1973 0.436523 74.6143 0.45931 74.9971 0.504883C75.3799 0.550456 75.7445 0.614258 76.0908 0.696289C76.4372 0.77832 76.7699 0.876302 77.0889 0.990234C77.4124 1.09961 77.7383 1.22266 78.0664 1.35938V2.38477C77.8066 2.2207 77.5286 2.06576 77.2324 1.91992C76.9362 1.77409 76.6149 1.64648 76.2686 1.53711C75.9268 1.42773 75.5599 1.34115 75.168 1.27734C74.776 1.21354 74.3568 1.18164 73.9102 1.18164C73.0078 1.18164 72.2262 1.27962 71.5654 1.47559C70.9046 1.67155 70.3577 1.94954 69.9248 2.30957C69.4964 2.66504 69.1774 3.09798 68.9678 3.6084C68.7627 4.11426 68.6602 4.68164 68.6602 5.31055C68.6602 5.93945 68.7627 6.50684 68.9678 7.0127C69.1774 7.51855 69.4964 7.9515 69.9248 8.31152C70.3577 8.66699 70.9046 8.94271 71.5654 9.13867C72.2262 9.33008 73.0078 9.42578 73.9102 9.42578C74.3568 9.42578 74.7783 9.39388 75.1748 9.33008C75.5758 9.26628 75.9495 9.17969 76.2959 9.07031C76.6468 8.96094 76.9681 8.83561 77.2598 8.69434C77.556 8.5485 77.8249 8.39583 78.0664 8.23633V9.25488ZM91.875 5.31055C91.875 6.15365 91.7223 6.88281 91.417 7.49805C91.1117 8.10872 90.6924 8.61458 90.1592 9.01562C89.626 9.41211 88.9971 9.70605 88.2725 9.89746C87.5479 10.0889 86.7663 10.1846 85.9277 10.1846C85.0846 10.1846 84.2985 10.0889 83.5693 9.89746C82.8402 9.70605 82.2067 9.41211 81.6689 9.01562C81.1312 8.61458 80.7096 8.10872 80.4043 7.49805C80.099 6.88281 79.9463 6.15365 79.9463 5.31055C79.9463 4.75 80.0169 4.24186 80.1582 3.78613C80.2995 3.32585 80.4977 2.91569 80.7529 2.55566C81.0081 2.19108 81.3158 1.87663 81.6758 1.6123C82.0404 1.34798 82.4437 1.12923 82.8857 0.956055C83.3324 0.77832 83.8109 0.648438 84.3213 0.566406C84.8317 0.479818 85.3672 0.436523 85.9277 0.436523C86.7663 0.436523 87.5479 0.532227 88.2725 0.723633C88.9971 0.915039 89.626 1.21126 90.1592 1.6123C90.6924 2.00879 91.1117 2.51465 91.417 3.12988C91.7223 3.74056 91.875 4.46745 91.875 5.31055ZM90.9932 5.31055C90.9932 4.64518 90.8838 4.05729 90.665 3.54688C90.4508 3.03646 90.1318 2.60807 89.708 2.26172C89.2842 1.91081 88.7555 1.64648 88.1221 1.46875C87.4932 1.28646 86.7617 1.19531 85.9277 1.19531C85.0938 1.19531 84.3577 1.28646 83.7197 1.46875C83.0863 1.65104 82.5553 1.91764 82.127 2.26855C81.6986 2.61491 81.375 3.04557 81.1562 3.56055C80.9375 4.07096 80.8281 4.6543 80.8281 5.31055C80.8281 5.97591 80.9375 6.5638 81.1562 7.07422C81.375 7.58464 81.6986 8.0153 82.127 8.36621C82.5553 8.71257 83.0863 8.97689 83.7197 9.15918C84.3577 9.33691 85.0938 9.42578 85.9277 9.42578C86.7617 9.42578 87.4932 9.33691 88.1221 9.15918C88.7555 8.97689 89.2842 8.71257 89.708 8.36621C90.1318 8.0153 90.4508 7.58464 90.665 7.07422C90.8838 6.5638 90.9932 5.97591 90.9932 5.31055Z" fill="#F5F4F4"/>
</svg>
