<svg width="7" height="12" viewBox="0 0 7 12" fill="none" xmlns="http://www.w3.org/2000/svg">
<path d="M4.18359 7.88965H2.39258C2.39258 7.48405 2.41536 7.12858 2.46094 6.82324C2.51107 6.5179 2.59538 6.24447 2.71387 6.00293C2.83691 5.76139 3.00326 5.52897 3.21289 5.30566C3.37695 5.12337 3.52279 4.9502 3.65039 4.78613C3.78255 4.61751 3.88281 4.44661 3.95117 4.27344C4.02409 4.0957 4.06055 3.9043 4.06055 3.69922C4.06055 3.45312 4.0332 3.25033 3.97852 3.09082C3.92839 2.93132 3.85547 2.81055 3.75977 2.72852C3.66406 2.64648 3.54329 2.60547 3.39746 2.60547C3.29264 2.60547 3.18783 2.64648 3.08301 2.72852C2.98275 2.80599 2.89616 2.92904 2.82324 3.09766C2.75488 3.26172 2.71842 3.47819 2.71387 3.74707H0.62207C0.631185 3.08626 0.758789 2.5485 1.00488 2.13379C1.25098 1.71452 1.58138 1.4069 1.99609 1.21094C2.41081 1.01042 2.87793 0.910156 3.39746 0.910156C3.96712 0.910156 4.45703 1.0127 4.86719 1.21777C5.2819 1.42285 5.59863 1.72819 5.81738 2.13379C6.03613 2.53483 6.14551 3.02474 6.14551 3.60352C6.14551 4 6.07715 4.34635 5.94043 4.64258C5.80827 4.9388 5.63509 5.21452 5.4209 5.46973C5.20671 5.72493 4.97428 5.99382 4.72363 6.27637C4.51855 6.50879 4.37956 6.74805 4.30664 6.99414C4.23828 7.23568 4.19727 7.53418 4.18359 7.88965ZM2.17383 9.98145C2.17383 9.66699 2.27865 9.40495 2.48828 9.19531C2.69792 8.98112 2.97135 8.87402 3.30859 8.87402C3.65039 8.87402 3.92383 8.98112 4.12891 9.19531C4.33398 9.40495 4.43652 9.66699 4.43652 9.98145C4.43652 10.2913 4.33398 10.5534 4.12891 10.7676C3.92383 10.9772 3.65039 11.082 3.30859 11.082C2.97135 11.082 2.69792 10.9772 2.48828 10.7676C2.27865 10.5534 2.17383 10.2913 2.17383 9.98145Z" fill="#BDBDBD"/>
</svg>
