<svg width="16" height="16" viewBox="0 0 16 16" fill="none" xmlns="http://www.w3.org/2000/svg">
<path d="M13 6.5C13 10.0899 10.0899 13 6.5 13C2.91015 13 0 10.0899 0 6.5C0 2.91015 2.91015 0 6.5 0C10.0899 0 13 2.91015 13 6.5ZM1.93742 6.5C1.93742 9.01984 3.98016 11.0626 6.5 11.0626C9.01984 11.0626 11.0626 9.01984 11.0626 6.5C11.0626 3.98016 9.01984 1.93742 6.5 1.93742C3.98016 1.93742 1.93742 3.98016 1.93742 6.5Z" fill="#D9D9D9"/>
<rect width="6.48775" height="1.94632" rx="0.973162" transform="matrix(0.720837 0.693105 -0.720837 0.693105 11.3232 9.53894)" fill="#D9D9D9"/>
</svg>
