<svg width="21" height="17" viewBox="0 0 21 17" fill="none" xmlns="http://www.w3.org/2000/svg">
<path d="M19.875 6.34375L12.5834 0.48958C12.0447 -0.0153677 11.2536 -0.143107 10.5834 0.166664C9.77523 0.644205 9.332 1.55948 9.45835 2.48958V5.61458L3.13542 0.64583C2.60585 0.163934 1.84124 0.0412676 1.18751 0.33333C0.760425 0.531247 0.0833418 1.10416 0.0833418 2.64583V14.3646C-0.0414707 15.2916 0.401946 16.203 1.20834 16.6771C1.43011 16.7805 1.67196 16.8339 1.91667 16.8333C2.37348 16.8184 2.81271 16.6537 3.16668 16.3646L9.45835 11.3646V14.2083C9.33356 15.1353 9.77689 16.0468 10.5834 16.5208C10.8055 16.623 11.0471 16.6762 11.2917 16.6771C11.7509 16.6649 12.192 16.4957 12.5417 16.1979L19.875 10.3437C20.5085 9.87416 20.882 9.13229 20.882 8.34375C20.882 7.55521 20.5085 6.81333 19.875 6.34375Z" fill="#F1F1F1"/>
</svg>
